{"title":"Prince - The Art of Musicology (2004 MTV Special) (WEBRIP) [MP4]","uid":14645783,"size":73816901,"categoryP":"video","categoryS":"tv_shows","magnet":"?xt=urn:btih:ad530aacc62f2959674ab47962e8e23a301c5b6a&amp;dn=Prince+-+The+Art+of+Musicology+%282004+MTV+Special%29+%28WEBRIP%29+%5BMP4%5D&amp;tr=udp%3A%2F%2Ftracker.leechers-paradise.org%3A6969&amp;tr=udp%3A%2F%2Fzer0day.ch%3A1337&amp;tr=udp%3A%2F%2Fopen.demonii.com%3A1337&amp;tr=udp%3A%2F%2Ftracker.coppersurfer.tk%3A6969&amp;tr=udp%3A%2F%2Fexodus.desync.com%3A6969","seeders":1,"leechers":0,"uploader":"Iznogoud9","files":2,"time":1463585197,"description":"PRINCE: THE ART OF MUSICOLOGY (2004) [MP4]\r\n\r\nPrince: The Art of Musicology\r\n\r\nA half hour special featuring Prince. First is a highlight \r\npackage of Prince's latest work. Next is an exclusive \r\nperformance segment. The special closes out with an interview \r\nby MTV News Correspondent Sway.\r\n\r\nFILE INFO:\r\n\r\nGeneral\r\nComplete name                            : Prince - The Art of Musicology (2004 MTV Special) [WEBRIP].mp4\r\nFormat                                   : MPEG-4\r\nFormat profile                           : Base Media / Version 2\r\nCodec ID                                 : mp42\r\nFile size                                : 70.4 MiB\r\nDuration                                 : 22mn 28s\r\nOverall bit rate mode                    : Variable\r\nOverall bit rate                         : 438 Kbps\r\nEncoded date                             : UTC 2016-05-01 20:44:24\r\nTagged date                              : UTC 2016-05-01 20:44:24\r\nWriting application                      : HandBrake 0.10.5 2016021100\r\n\r\nVideo\r\nID                                       : 1\r\nFormat                                   : AVC\r\nFormat/Info                              : Advanced Video Codec\r\nFormat profile                           :   \r\nFormat settings, CABAC                   : Yes\r\nFormat settings, ReFrames                : 16 frames\r\nCodec ID                                 : avc1\r\nCodec ID/Info                            : Advanced Video Coding\r\nDuration                                 : 22mn 28s\r\nBit rate                                 : 336 Kbps\r\nWidth                                    : 346 pixels\r\nHeight                                   : 260 pixels\r\nDisplay aspect ratio                     : 4:3\r\nFrame rate mode                          : Constant\r\nFrame rate                               : 29.970 fps\r\nColor space                              : YUV\r\nChroma subsampling                       : 4:2:0\r\nBit depth                                : 8 bits\r\nScan type                                : Progressive\r\nBits/(Pixel*Frame)                       : 0.124\r\nStream size                              : 53.9 MiB (77%)\r\nWriting library                          : x264 core 142 r2479 dd79a61\r\nEncoding settings                        : cabac=1 / ref=16 / deblock=1:0:0 / analyse=0x3:0x133 / me=umh / subme=10 / psy=1 / psy_rd=1.00:0.00 / mixed_ref=1 / me_range=24 / chroma_me=1 / trellis=2 / 8x8dct=1 / cqm=0 / deadzone=21,11 / fast_pskip=1 / chroma_qp_offset=-2 / threads=6 / lookahead_threads=1 / sliced_threads=0 / nr=0 / decimate=1 / interlaced=0 / bluray_compat=0 / constrained_intra=0 / bframes=8 / b_pyramid=2 / b_adapt=2 / b_bias=0 / direct=3 / weightb=1 / open_gop=0 / weightp=2 / keyint=300 / keyint_min=30 / scenecut=40 / intra_refresh=0 / rc_lookahead=60 / rc=crf / mbtree=1 / crf=20.0 / qcomp=0.60 / qpmin=0 / qpmax=69 / qpstep=4 / ip_ratio=1.40 / aq=1:1.00\r\nEncoded date                             : UTC 2016-05-01 20:44:24\r\nTagged date                              : UTC 2016-05-01 20:44:24\r\nColor primaries                          : BT.601 NTSC\r\nTransfer characteristics                 : BT.709\r\nMatrix coefficients                      : BT.601\r\n\r\nAudio\r\nID                                       : 2\r\nFormat                                   : AAC\r\nFormat/Info                              : Advanced Audio Codec\r\nFormat profile                           : LC\r\nCodec ID                                 : 40\r\nDuration                                 : 22mn 28s\r\nBit rate mode                            : Variable\r\nBit rate                                 : 96.0 Kbps\r\nChannel(s)                               : 2 channels\r\nChannel positions                        : Front: L R\r\nSampling rate                            : 44.1 KHz\r\nCompression mode                         : Lossy\r\nStream size                              : 15.4 MiB (22%)\r\nTitle                                    : Stereo\r\nEncoded date                             : UTC 2016-05-01 20:44:24\r\nTagged date                              : UTC 2016-05-01 20:44:24","torrent":{"xt":"urn:btih:ad530aacc62f2959674ab47962e8e23a301c5b6a","amp;dn":"Prince+-+The+Art+of+Musicology+%282004+MTV+Special%29+%28WEBRIP%29+%5BMP4%5D","amp;tr":["udp%3A%2F%2Ftracker.leechers-paradise.org%3A6969","udp%3A%2F%2Fzer0day.ch%3A1337","udp%3A%2F%2Fopen.demonii.com%3A1337","udp%3A%2F%2Ftracker.coppersurfer.tk%3A6969","udp%3A%2F%2Fexodus.desync.com%3A6969"],"infoHash":"ad530aacc62f2959674ab47962e8e23a301c5b6a","infoHashBuffer":{"type":"Buffer","data":[173,83,10,172,198,47,41,89,103,74,180,121,98,232,226,58,48,28,91,106]},"announce":[],"urlList":[]}}